<svg xmlns="http://www.w3.org/2000/svg" viewBox="0 0 1920 1080">
  <defs>
    <linearGradient id="bg3" x1="0%" y1="0%" x2="100%" y2="100%">
      <stop offset="0%" style="stop-color:#1a365d;stop-opacity:1" />
      <stop offset="50%" style="stop-color:#2d3748;stop-opacity:1" />
      <stop offset="100%" style="stop-color:#1a365d;stop-opacity:1" />
    </linearGradient>
    <linearGradient id="accent3" x1="0%" y1="0%" x2="100%" y2="0%">
      <stop offset="0%" style="stop-color:#3490dc;stop-opacity:1" />
      <stop offset="50%" style="stop-color:#4a90e2;stop-opacity:1" />
      <stop offset="100%" style="stop-color:#3490dc;stop-opacity:1" />
    </linearGradient>
    <radialGradient id="glow" cx="50%" cy="50%" r="50%">
      <stop offset="0%" style="stop-color:#4a90e2;stop-opacity:0.6" />
      <stop offset="100%" style="stop-color:#4a90e2;stop-opacity:0" />
    </radialGradient>
  </defs>
  
  <!-- Background -->
  <rect width="1920" height="1080" fill="url(#bg3)"/>
  
  <!-- Circuit Pattern -->
  <pattern id="circuit" width="80" height="80" patternUnits="userSpaceOnUse">
    <g stroke="white" stroke-width="0.5" opacity="0.1" fill="none">
      <path d="M0,40 L20,40 L20,20 L60,20 L60,60 L80,60"/>
      <path d="M40,0 L40,20 L60,20 L60,40 L40,40 L40,80"/>
      <circle cx="20" cy="40" r="3" fill="white" opacity="0.2"/>
      <circle cx="60" cy="20" r="3" fill="white" opacity="0.2"/>
      <circle cx="60" cy="60" r="3" fill="white" opacity="0.2"/>
    </g>
  </pattern>
  <rect width="1920" height="1080" fill="url(#circuit)"/>
  
  <!-- Advanced Technology Elements -->
  <g transform="translate(1100, 150)" opacity="0.4">
    <!-- AI Brain -->
    <circle cx="150" cy="150" r="80" fill="none" stroke="url(#accent3)" stroke-width="3"/>
    <circle cx="150" cy="150" r="60" fill="none" stroke="url(#accent3)" stroke-width="2" opacity="0.7"/>
    <circle cx="150" cy="150" r="40" fill="none" stroke="url(#accent3)" stroke-width="2" opacity="0.5"/>
    <circle cx="150" cy="150" r="20" fill="url(#accent3)" opacity="0.6"/>
    
    <!-- Neural Network Nodes -->
    <circle cx="100" cy="100" r="8" fill="white" opacity="0.8"/>
    <circle cx="200" cy="100" r="8" fill="white" opacity="0.8"/>
    <circle cx="100" cy="200" r="8" fill="white" opacity="0.8"/>
    <circle cx="200" cy="200" r="8" fill="white" opacity="0.8"/>
    <circle cx="150" cy="80" r="6" fill="white" opacity="0.6"/>
    <circle cx="150" cy="220" r="6" fill="white" opacity="0.6"/>
    <circle cx="80" cy="150" r="6" fill="white" opacity="0.6"/>
    <circle cx="220" cy="150" r="6" fill="white" opacity="0.6"/>
    
    <!-- Connections -->
    <g stroke="white" stroke-width="1" opacity="0.4">
      <line x1="100" y1="100" x2="150" y2="150"/>
      <line x1="200" y1="100" x2="150" y2="150"/>
      <line x1="100" y1="200" x2="150" y2="150"/>
      <line x1="200" y1="200" x2="150" y2="150"/>
      <line x1="150" y1="80" x2="150" y2="150"/>
      <line x1="150" y1="220" x2="150" y2="150"/>
      <line x1="80" y1="150" x2="150" y2="150"/>
      <line x1="220" y1="150" x2="150" y2="150"/>
    </g>
  </g>
  
  <g transform="translate(1300, 350)" opacity="0.3">
    <!-- Robotic Arm -->
    <g stroke="white" stroke-width="6" fill="none" opacity="0.5">
      <path d="M0,100 L60,100 L60,60 L120,60 L120,20"/>
      <circle cx="0" cy="100" r="15" fill="white" opacity="0.6"/>
      <circle cx="60" cy="100" r="12" fill="white" opacity="0.6"/>
      <circle cx="60" cy="60" r="12" fill="white" opacity="0.6"/>
      <circle cx="120" cy="60" r="10" fill="white" opacity="0.6"/>
      <circle cx="120" cy="20" r="8" fill="url(#accent3)" opacity="0.8"/>
    </g>
  </g>
  
  <g transform="translate(1150, 500)" opacity="0.25">
    <!-- Data Visualization -->
    <rect x="0" y="80" width="20" height="40" fill="white" opacity="0.4"/>
    <rect x="30" y="60" width="20" height="60" fill="white" opacity="0.5"/>
    <rect x="60" y="40" width="20" height="80" fill="white" opacity="0.6"/>
    <rect x="90" y="20" width="20" height="100" fill="url(#accent3)" opacity="0.7"/>
    <rect x="120" y="50" width="20" height="70" fill="white" opacity="0.5"/>
    <rect x="150" y="70" width="20" height="50" fill="white" opacity="0.4"/>
  </g>
  
  <!-- Glowing Orbs -->
  <circle cx="1400" cy="200" r="60" fill="url(#glow)"/>
  <circle cx="1200" cy="400" r="40" fill="url(#glow)"/>
  <circle cx="1500" cy="500" r="50" fill="url(#glow)"/>
  
  <!-- Tech Grid -->
  <g stroke="url(#accent3)" stroke-width="1" opacity="0.3" fill="none">
    <rect x="1000" y="300" width="100" height="100" rx="10"/>
    <rect x="1120" y="320" width="80" height="80" rx="8"/>
    <rect x="1220" y="310" width="90" height="90" rx="9"/>
    <rect x="1330" y="325" width="75" height="75" rx="7"/>
  </g>
  
  <!-- Animated Particles -->
  <g fill="white">
    <circle cx="1050" cy="150" r="2" opacity="0.8">
      <animate attributeName="opacity" values="0.8;0.3;0.8" dur="2s" repeatCount="indefinite"/>
    </circle>
    <circle cx="1250" cy="180" r="1.5" opacity="0.6">
      <animate attributeName="opacity" values="0.6;0.2;0.6" dur="2.5s" repeatCount="indefinite"/>
    </circle>
    <circle cx="1150" cy="120" r="2.5" opacity="0.7">
      <animate attributeName="opacity" values="0.7;0.3;0.7" dur="3s" repeatCount="indefinite"/>
    </circle>
    <circle cx="1350" cy="160" r="2" opacity="0.5">
      <animate attributeName="opacity" values="0.5;0.2;0.5" dur="2.2s" repeatCount="indefinite"/>
    </circle>
    <circle cx="1080" cy="250" r="1.8" opacity="0.6">
      <animate attributeName="opacity" values="0.6;0.3;0.6" dur="2.8s" repeatCount="indefinite"/>
    </circle>
    <circle cx="1280" cy="280" r="2.2" opacity="0.7">
      <animate attributeName="opacity" values="0.7;0.2;0.7" dur="2.3s" repeatCount="indefinite"/>
    </circle>
  </g>
  
  <!-- Energy Waves -->
  <g stroke="url(#accent3)" stroke-width="2" fill="none" opacity="0.4">
    <path d="M1000,600 Q1200,550 1400,600 Q1600,650 1800,600">
      <animate attributeName="stroke-dasharray" values="0,200;100,100;200,0;0,200" dur="5s" repeatCount="indefinite"/>
    </path>
    <path d="M1000,650 Q1200,600 1400,650 Q1600,700 1800,650">
      <animate attributeName="stroke-dasharray" values="200,0;100,100;0,200;200,0" dur="5s" repeatCount="indefinite"/>
    </path>
  </g>
</svg>