<svg xmlns="http://www.w3.org/2000/svg" viewBox="0 0 1920 1080">
  <defs>
    <linearGradient id="bg2" x1="0%" y1="0%" x2="100%" y2="100%">
      <stop offset="0%" style="stop-color:#2d3748;stop-opacity:1" />
      <stop offset="100%" style="stop-color:#1a365d;stop-opacity:1" />
    </linearGradient>
    <linearGradient id="accent2" x1="0%" y1="0%" x2="100%" y2="0%">
      <stop offset="0%" style="stop-color:#4a90e2;stop-opacity:1" />
      <stop offset="100%" style="stop-color:#3490dc;stop-opacity:1" />
    </linearGradient>
  </defs>
  
  <!-- Background -->
  <rect width="1920" height="1080" fill="url(#bg2)"/>
  
  <!-- Hexagon Pattern -->
  <pattern id="hexagon" width="60" height="52" patternUnits="userSpaceOnUse">
    <polygon points="30,4 52,17 52,35 30,48 8,35 8,17" fill="none" stroke="white" stroke-width="0.5" opacity="0.1"/>
  </pattern>
  <rect width="1920" height="1080" fill="url(#hexagon)"/>
  
  <!-- Industrial Solutions Icons -->
  <g transform="translate(1150, 150)" opacity="0.3">
    <!-- Gear System -->
    <circle cx="100" cy="100" r="60" fill="none" stroke="white" stroke-width="8" opacity="0.4"/>
    <circle cx="100" cy="100" r="30" fill="white" opacity="0.3"/>
    <polygon points="100,40 120,60 120,80 100,100 80,80 80,60" fill="white" opacity="0.5"/>
    <polygon points="100,100 120,120 120,140 100,160 80,140 80,120" fill="white" opacity="0.5"/>
    <polygon points="40,100 60,80 80,80 100,100 80,120 60,120" fill="white" opacity="0.5"/>
    <polygon points="100,100 120,80 140,80 160,100 140,120 120,120" fill="white" opacity="0.5"/>
  </g>
  
  <g transform="translate(1350, 300)" opacity="0.25">
    <!-- Assembly Line -->
    <rect x="0" y="50" width="250" height="30" fill="white" opacity="0.3" rx="15"/>
    <rect x="20" y="30" width="30" height="70" fill="white" opacity="0.4" rx="5"/>
    <rect x="80" y="20" width="30" height="90" fill="white" opacity="0.4" rx="5"/>
    <rect x="140" y="35" width="30" height="60" fill="white" opacity="0.4" rx="5"/>
    <rect x="200" y="25" width="30" height="80" fill="white" opacity="0.4" rx="5"/>
  </g>
  
  <g transform="translate(1200, 450)" opacity="0.2">
    <!-- Quality Control -->
    <circle cx="50" cy="50" r="40" fill="none" stroke="white" stroke-width="4" opacity="0.4"/>
    <circle cx="50" cy="50" r="20" fill="white" opacity="0.5"/>
    <rect x="30" y="30" width="40" height="40" fill="none" stroke="white" stroke-width="2" opacity="0.3"/>
    <path d="M35,50 L45,60 L65,40" stroke="white" stroke-width="3" fill="none" opacity="0.6"/>
  </g>
  
  <!-- Network Connections -->
  <g stroke="url(#accent2)" stroke-width="2" opacity="0.5" fill="none">
    <path d="M1200,200 L1300,250 L1400,200 L1500,250"/>
    <path d="M1250,350 L1350,300 L1450,350"/>
    <path d="M1300,500 L1400,450 L1500,500"/>
    <circle cx="1200" cy="200" r="5" fill="url(#accent2)"/>
    <circle cx="1300" cy="250" r="5" fill="url(#accent2)"/>
    <circle cx="1400" cy="200" r="5" fill="url(#accent2)"/>
    <circle cx="1500" cy="250" r="5" fill="url(#accent2)"/>
  </g>
  
  <!-- Abstract Shapes -->
  <g fill="url(#accent2)" opacity="0.3">
    <rect x="1100" y="600" width="80" height="80" rx="10" transform="rotate(45 1140 640)"/>
    <rect x="1400" y="550" width="60" height="60" rx="8" transform="rotate(30 1430 580)"/>
  </g>
  
  <!-- Data Flow Lines -->
  <g stroke="white" stroke-width="1" opacity="0.3" fill="none">
    <path d="M1000,400 Q1100,350 1200,400 Q1300,450 1400,400">
      <animate attributeName="stroke-dasharray" values="0,100;50,50;100,0;0,100" dur="4s" repeatCount="indefinite"/>
    </path>
    <path d="M1050,500 Q1150,450 1250,500 Q1350,550 1450,500">
      <animate attributeName="stroke-dasharray" values="100,0;50,50;0,100;100,0" dur="4s" repeatCount="indefinite"/>
    </path>
  </g>
  
  <!-- Floating Elements -->
  <g fill="white" opacity="0.4">
    <circle cx="1120" cy="180" r="4"/>
    <circle cx="1320" cy="220" r="3"/>
    <circle cx="1220" cy="160" r="3.5"/>
    <circle cx="1420" cy="200" r="3"/>
    <circle cx="1170" cy="280" r="2.5"/>
    <circle cx="1370" cy="320" r="3"/>
    <circle cx="1270" cy="260" r="3.5"/>
    <circle cx="1470" cy="300" r="2.5"/>
  </g>
</svg>