<svg xmlns="http://www.w3.org/2000/svg" viewBox="0 0 800 600" width="800" height="600">
  <defs>
    <linearGradient id="skyGradient" x1="0%" y1="0%" x2="0%" y2="100%">
      <stop offset="0%" style="stop-color:#87CEEB;stop-opacity:1" />
      <stop offset="100%" style="stop-color:#E0F6FF;stop-opacity:1" />
    </linearGradient>
    <linearGradient id="factoryGradient" x1="0%" y1="0%" x2="0%" y2="100%">
      <stop offset="0%" style="stop-color:#4A5568;stop-opacity:1" />
      <stop offset="100%" style="stop-color:#2D3748;stop-opacity:1" />
    </linearGradient>
    <linearGradient id="smokeGradient" x1="0%" y1="100%" x2="0%" y2="0%">
      <stop offset="0%" style="stop-color:#E2E8F0;stop-opacity:0.8" />
      <stop offset="100%" style="stop-color:#F7FAFC;stop-opacity:0.3" />
    </linearGradient>
  </defs>
  
  <!-- Sky Background -->
  <rect width="800" height="400" fill="url(#skyGradient)"/>
  
  <!-- Ground -->
  <rect x="0" y="400" width="800" height="200" fill="#68D391"/>
  
  <!-- Factory Building 1 -->
  <rect x="100" y="250" width="150" height="150" fill="url(#factoryGradient)" stroke="#1A202C" stroke-width="2"/>
  
  <!-- Factory Building 2 -->
  <rect x="300" y="200" width="200" height="200" fill="url(#factoryGradient)" stroke="#1A202C" stroke-width="2"/>
  
  <!-- Factory Building 3 -->
  <rect x="550" y="280" width="120" height="120" fill="url(#factoryGradient)" stroke="#1A202C" stroke-width="2"/>
  
  <!-- Smokestacks -->
  <rect x="140" y="150" width="20" height="100" fill="#718096"/>
  <rect x="180" y="120" width="20" height="130" fill="#718096"/>
  <rect x="380" y="100" width="25" height="100" fill="#718096"/>
  <rect x="420" y="80" width="25" height="120" fill="#718096"/>
  <rect x="590" y="180" width="20" height="100" fill="#718096"/>
  
  <!-- Smoke Clouds -->
  <ellipse cx="150" cy="140" rx="15" ry="25" fill="url(#smokeGradient)"/>
  <ellipse cx="145" cy="120" rx="20" ry="30" fill="url(#smokeGradient)"/>
  <ellipse cx="155" cy="100" rx="25" ry="35" fill="url(#smokeGradient)"/>
  
  <ellipse cx="190" cy="110" rx="18" ry="28" fill="url(#smokeGradient)"/>
  <ellipse cx="185" cy="90" rx="23" ry="33" fill="url(#smokeGradient)"/>
  <ellipse cx="195" cy="70" rx="28" ry="38" fill="url(#smokeGradient)"/>
  
  <ellipse cx="392" cy="90" rx="20" ry="30" fill="url(#smokeGradient)"/>
  <ellipse cx="387" cy="70" rx="25" ry="35" fill="url(#smokeGradient)"/>
  <ellipse cx="397" cy="50" rx="30" ry="40" fill="url(#smokeGradient)"/>
  
  <ellipse cx="432" cy="70" rx="22" ry="32" fill="url(#smokeGradient)"/>
  <ellipse cx="427" cy="50" rx="27" ry="37" fill="url(#smokeGradient)"/>
  <ellipse cx="437" cy="30" rx="32" ry="42" fill="url(#smokeGradient)"/>
  
  <ellipse cx="600" cy="170" rx="16" ry="26" fill="url(#smokeGradient)"/>
  <ellipse cx="595" cy="150" rx="21" ry="31" fill="url(#smokeGradient)"/>
  <ellipse cx="605" cy="130" rx="26" ry="36" fill="url(#smokeGradient)"/>
  
  <!-- Windows -->
  <rect x="120" y="270" width="25" height="25" fill="#FED7D7" stroke="#1A202C" stroke-width="1"/>
  <rect x="160" y="270" width="25" height="25" fill="#FED7D7" stroke="#1A202C" stroke-width="1"/>
  <rect x="120" y="310" width="25" height="25" fill="#FED7D7" stroke="#1A202C" stroke-width="1"/>
  <rect x="160" y="310" width="25" height="25" fill="#FED7D7" stroke="#1A202C" stroke-width="1"/>
  
  <rect x="320" y="220" width="30" height="30" fill="#FED7D7" stroke="#1A202C" stroke-width="1"/>
  <rect x="370" y="220" width="30" height="30" fill="#FED7D7" stroke="#1A202C" stroke-width="1"/>
  <rect x="420" y="220" width="30" height="30" fill="#FED7D7" stroke="#1A202C" stroke-width="1"/>
  <rect x="320" y="270" width="30" height="30" fill="#FED7D7" stroke="#1A202C" stroke-width="1"/>
  <rect x="370" y="270" width="30" height="30" fill="#FED7D7" stroke="#1A202C" stroke-width="1"/>
  <rect x="420" y="270" width="30" height="30" fill="#FED7D7" stroke="#1A202C" stroke-width="1"/>
  
  <rect x="570" y="300" width="20" height="20" fill="#FED7D7" stroke="#1A202C" stroke-width="1"/>
  <rect x="600" y="300" width="20" height="20" fill="#FED7D7" stroke="#1A202C" stroke-width="1"/>
  <rect x="570" y="330" width="20" height="20" fill="#FED7D7" stroke="#1A202C" stroke-width="1"/>
  <rect x="600" y="330" width="20" height="20" fill="#FED7D7" stroke="#1A202C" stroke-width="1"/>
  
  <!-- Doors -->
  <rect x="200" y="350" width="30" height="50" fill="#8B4513" stroke="#1A202C" stroke-width="2"/>
  <rect x="460" y="350" width="35" height="50" fill="#8B4513" stroke="#1A202C" stroke-width="2"/>
  
  <!-- Crane -->
  <line x1="50" y1="200" x2="50" y2="400" stroke="#4A5568" stroke-width="8"/>
  <line x1="50" y1="200" x2="250" y2="200" stroke="#4A5568" stroke-width="6"/>
  <rect x="200" y="195" width="15" height="15" fill="#E53E3E"/>
  <line x1="207" y1="210" x2="207" y2="250" stroke="#1A202C" stroke-width="2"/>
  <rect x="202" y="250" width="10" height="8" fill="#4A5568"/>
  
  <!-- Gears (decorative) -->
  <circle cx="700" cy="100" r="30" fill="#4A5568" stroke="#1A202C" stroke-width="2"/>
  <circle cx="700" cy="100" r="20" fill="none" stroke="#1A202C" stroke-width="2"/>
  <line x1="670" y1="100" x2="730" y2="100" stroke="#1A202C" stroke-width="2"/>
  <line x1="700" y1="70" x2="700" y2="130" stroke="#1A202C" stroke-width="2"/>
  <line x1="678" y1="78" x2="722" y2="122" stroke="#1A202C" stroke-width="2"/>
  <line x1="722" y1="78" x2="678" y2="122" stroke="#1A202C" stroke-width="2"/>
  
  <circle cx="750" cy="150" r="20" fill="#718096" stroke="#1A202C" stroke-width="2"/>
  <circle cx="750" cy="150" r="12" fill="none" stroke="#1A202C" stroke-width="2"/>
  <line x1="730" y1="150" x2="770" y2="150" stroke="#1A202C" stroke-width="2"/>
  <line x1="750" y1="130" x2="750" y2="170" stroke="#1A202C" stroke-width="2"/>
  
  <!-- Mission Text Overlay -->
  <rect x="50" y="450" width="700" height="120" fill="rgba(26, 54, 93, 0.9)" rx="10"/>
  <text x="400" y="485" text-anchor="middle" fill="white" font-family="Arial, sans-serif" font-size="24" font-weight="bold">Industrial Excellence</text>
  <text x="400" y="515" text-anchor="middle" fill="#E2E8F0" font-family="Arial, sans-serif" font-size="16">Empowering Industries with Innovation</text>
  <text x="400" y="540" text-anchor="middle" fill="#CBD5E0" font-family="Arial, sans-serif" font-size="14">Quality • Reliability • Advanced Technology</text>
</svg>